<svg xmlns="http://www.w3.org/2000/svg" id="si_logo" data-name="si logo" viewBox="0 0 159.23 300">
    <g id="visual">
        <path id="head" fill="#8b5dff" d="M111.07 8.47c-.12 11.25-5.61 11.51-20.04 17.08 15.56-4.65 18.93-6.74 18.45-.48-.33 4.33-1.02 11.98-1.95 22.4-1.43 16.05-8.99 25.88-25.17 25.88S55.55 59.13 53.57 43.16c-2.1-16.9.96-23.05 28.51-35.72C109-4.94 111.16.07 111.07 8.47" />
        <path id="body" fill="#8b5dff" d="M14.63 256.06c97.08-67.13-42.94-153.79 83.04-178.24 15.17-12.14 47.78 6.83 43.23 51.96-4.7 46.63-41.72 106.95-126.28 126.29Z" />
        <path id="tie" fill="#35007f" d="M104.61 164.34c26.72-59.08-27.75-67.45-6.98-86.43-11.31 21.8 65.4 23.7 6.98 86.43" />
    </g>
    <path id="dot" fill="#8b5dff" d="M11.74 250.32c0 3.24-2.63 5.87-5.87 5.87S0 253.56 0 250.32s2.63-5.87 5.87-5.87 5.87 2.63 5.87 5.87" />
    <g id="text">
        <path fill="#8b5dff" d="M73.91 247.45c-.74-.53-2.22-.77-3.34-.77-1.3 0-3.11.33-3.11 1.2 0 2.12 9.65.76 9.65 4.83 0 2.6-3.76 3.83-8.08 3.83-2.69 0-5.06-.44-7.04-1.46l3.28-2c.95.69 2.49 1.1 4.02 1.1s3.2-.39 3.2-1.22c0-2.14-9.82-.99-9.82-4.86 0-2.48 3.88-3.78 7.99-3.78 2.37 0 4.64.34 6.42 1.22l-3.17 1.92ZM79.09 244.61h6.98l4.82 7.59h.06l4.85-7.59h6.95v11.64h-4.62v-8.92h-.06l-5.5 8.92h-3.52l-5.3-8.92h-.06v8.92h-4.62v-11.64ZM112.65 244.61h3.82l9.11 11.64h-5.21l-1.8-2.46h-8.14l-1.75 2.46h-5.09l9.05-11.64Zm1.77 3.38-2.54 3.62H117l-2.57-3.62ZM126.39 244.61h8.11c4.29 0 7.9.82 7.9 3.53 0 1.63-1.57 2.89-4.53 3.19l5.33 4.91h-5.53l-4.38-4.65h-2.28v4.65h-4.62V244.6Zm4.61 4.81h2.72c1.69 0 3.88-.03 3.88-1.3 0-1.17-1.89-1.35-3.58-1.35H131zM148.64 246.88h-5.98v-2.27h16.57v2.27h-5.98v9.37h-4.62v-9.37ZM1.7 262.17h8.07v20.36H1.7zM14.5 262.17h12.21l8.44 13.29h.1l8.49-13.29H55.9v20.36h-8.07v-15.62h-.1l-9.63 15.62h-6.16l-9.26-15.62h-.1v15.62h-8.07v-20.36ZM72.91 262.17h6.68l15.94 20.36h-9.11l-3.16-4.31H69.03l-3.05 4.31h-8.9l15.84-20.36Zm3.11 5.93-4.45 6.33h8.95zM127.92 281.1c-4.76 1.38-9.99 1.96-15.37 1.96-11.44 0-19.77-4.17-19.77-10.7s8.33-10.7 19.77-10.7c5.8 0 10.92.72 14.6 2.62l-5.69 3.45c-2.17-1.27-4.81-1.93-8.9-1.93-6.88 0-11.39 2.76-11.39 6.56s4.5 6.56 11.39 6.56c3.52 0 6.11-.55 7.61-1.01v-3.31h-6.57v-4.14h14.34v10.64ZM132.56 262.17h24.9v4.14h-16.82v3.8h15.89v4.14h-15.89v4.14h17.75v4.14h-25.83z"/>
    </g>
</svg>