<svg xmlns="http://www.w3.org/2000/svg" id="si_logo" data-name="si logo" viewBox="15 0 150 256">
    <path id="head" fill="#8b5dff" d="M111.07 8.47c-.12 11.25-5.61 11.51-20.04 17.08 15.56-4.65 18.93-6.74 18.45-.48-.33 4.33-1.02 11.98-1.95 22.4-1.43 16.05-8.99 25.88-25.17 25.88S55.55 59.13 53.57 43.16c-2.1-16.9.96-23.05 28.51-35.72C109-4.94 111.16.07 111.07 8.47"/>
    <path id="body" fill="#8b5dff" d="M14.63 256.06c97.08-67.13-42.94-153.79 83.04-178.24 15.17-12.14 47.78 6.83 43.23 51.96-4.7 46.63-41.72 106.95-126.28 126.29Z"/>
    <path id="tie" fill="#35007f" d="M104.61 164.34c26.72-59.08-27.75-67.45-6.98-86.43-11.31 21.8 65.4 23.7 6.98 86.43"/>
</svg>